<?xml version="1.0" encoding="iso-8859-1"?>
<!-- Generator: Adobe Illustrator 19.0.0, SVG Export Plug-In . SVG Version: 6.00 Build 0)  -->
<svg xmlns="http://www.w3.org/2000/svg" xmlns:xlink="http://www.w3.org/1999/xlink" version="1.1" id="Capa_1" x="0px" y="0px" viewBox="0 0 512 512" style="enable-background:new 0 0 512 512;" xml:space="preserve" width="512px" height="512px">
<g>
	<g>
		<g>
			<path d="M507.521,300.646c-3.313-2.375-7.729-2.615-11.354-0.646c-1.771,0.99-39.063,21.667-59.292,38.135     c-9.814-6.495-24.9-13.393-42.095-19.599c0.587-8.793,6.422-34.299,10.22-49.245c0.938-3.656-0.146-7.542-2.813-10.198     c-2.688-2.667-6.542-3.729-10.229-2.74c-7.385,1.941-70.503,19.053-97.59,42.544c-74.122,1.221-132.672,33.139-164.993,90.529     c-1.833,3.25-1.833,7.229,0,10.479c32.958,58.521,93.083,90.76,169.292,90.76c10.872,0,23.234-1.336,36.087-3.621     C341.556,501.928,356.327,512,373.333,512C396.854,512,416,492.865,416,469.333c0-2.303-0.345-4.57-0.719-6.831     c8.414-3.771,15.995-7.6,21.594-11.305c20.229,16.469,57.521,37.146,59.292,38.135c1.625,0.896,3.396,1.333,5.167,1.333     c2.167,0,4.354-0.667,6.188-1.979c3.354-2.385,5.021-6.469,4.313-10.51c-0.104-0.604-10.5-60.698-10.5-83.51     c0-22.802,10.396-82.906,10.5-83.51C512.542,307.115,510.875,303.031,507.521,300.646z M213.333,405.333     C201.563,405.333,192,395.76,192,384c0-11.76,9.563-21.333,21.333-21.333c11.771,0,21.333,9.573,21.333,21.333     C234.667,395.76,225.104,405.333,213.333,405.333z M275.979,442.552c-1.958,3.479-5.583,5.438-9.313,5.438     c-1.75,0-3.542-0.438-5.188-1.354c-5.125-2.865-6.979-9.354-4.125-14.49c0.083-0.177,9.313-17.083,9.313-37.479     s-9.229-37.302-9.313-37.479c-2.854-5.135-1-11.625,4.125-14.49c5.125-2.875,11.625-1.031,14.5,4.083     c0.479,0.875,12.021,21.74,12.021,47.885S276.458,441.677,275.979,442.552z" fill="#FFFFFF"/>
			<path d="M258.625,127.656c20.354-5.313,39.583-10.323,79.125-10.323c39.521,0,58.75,5.01,79.104,10.323     c20.75,5.417,42.208,11.01,84.479,11.01c5.896,0,10.667-4.771,10.667-10.667s-4.771-10.667-10.667-10.667     c-39.521,0-58.75-5.01-79.104-10.323C401.479,101.594,380.021,96,337.75,96c-42.271,0-63.75,5.594-84.5,11.01     c-20.354,5.313-39.583,10.323-79.104,10.323c-19.464,0-33.973-1.224-46.146-3.094V96c0-25.754-18.348-47.298-42.667-52.254     V10.667C85.333,4.771,80.563,0,74.667,0C68.771,0,64,4.771,64,10.667v33.079C39.681,48.702,21.333,70.246,21.333,96v0.18     C17.874,96.094,14.445,96,10.667,96C4.771,96,0,100.771,0,106.667c0,5.896,4.771,10.667,10.667,10.667     c3.794,0,7.245,0.085,10.684,0.173c0.085,25.676,18.387,47.137,42.65,52.081v132.357c-6.259,3.724-10.667,10.262-10.667,18.056     S57.741,334.332,64,338.056v47.767C51.583,390.229,42.667,402.094,42.667,416c0,17.646,14.354,32,32,32c17.646,0,32-14.354,32-32     c0-5.896-4.771-10.667-10.667-10.667S85.333,410.104,85.333,416c0,5.885-4.792,10.667-10.667,10.667S64,421.885,64,416     c0-5.885,4.792-10.667,10.667-10.667c5.896,0,10.667-4.771,10.667-10.667v-56.611C91.592,334.332,96,327.794,96,320     s-4.408-14.332-10.667-18.056V169.587c18.34-3.737,33.092-16.991,39.332-34.288c13.085,2.01,28.764,3.367,49.48,3.367     C216.417,138.667,237.875,133.073,258.625,127.656z M74.667,320c0.036,0,0.066-0.021,0.103-0.021L85.333,320H74.667z" fill="#FFFFFF"/>
		</g>
	</g>
</g>
<g>
</g>
<g>
</g>
<g>
</g>
<g>
</g>
<g>
</g>
<g>
</g>
<g>
</g>
<g>
</g>
<g>
</g>
<g>
</g>
<g>
</g>
<g>
</g>
<g>
</g>
<g>
</g>
<g>
</g>
</svg>
